<svg width="147" height="20" xmlns="http://www.w3.org/2000/svg"><path d="M8.936 14.337c0-.724-.188-1.27-.562-1.636-.366-.374-1.038-.76-2.014-1.16-1.782-.675-3.064-1.464-3.845-2.368-.782-.911-1.172-1.985-1.172-3.222 0-1.498.529-2.698 1.587-3.601C3.996 1.438 5.347.982 6.982.982c1.09 0 2.063.232 2.918.696a4.708 4.708 0 011.965 1.941c.464.838.696 1.79.696 2.857H8.984c0-.83-.179-1.461-.537-1.893-.35-.439-.858-.659-1.526-.659-.626 0-1.115.187-1.464.562-.35.366-.525.862-.525 1.49 0 .487.195.93.586 1.33.39.39 1.082.797 2.075 1.22 1.733.627 2.99 1.396 3.772 2.308.79.911 1.184 2.07 1.184 3.479 0 1.546-.492 2.754-1.477 3.625-.985.87-2.324 1.306-4.016 1.306-1.148 0-2.194-.236-3.138-.708a5.35 5.35 0 01-2.221-2.026c-.53-.88-.794-1.917-.794-3.113h3.601c0 1.025.2 1.77.599 2.234.398.464 1.05.696 1.953.696 1.253 0 1.88-.664 1.88-1.99zm11.157 4.907c-1.774 0-3.158-.529-4.15-1.587-.993-1.058-1.49-2.571-1.49-4.54v-1.05c0-2.084.456-3.691 1.367-4.822.912-1.132 2.218-1.697 3.919-1.697 1.66 0 2.91.533 3.747 1.599.838 1.058 1.266 2.629 1.282 4.712v1.697h-6.873c.05.976.265 1.692.648 2.148.382.448.972.671 1.77.671 1.155 0 2.12-.394 2.893-1.184l1.355 2.088c-.424.586-1.038 1.062-1.844 1.428a6.388 6.388 0 01-2.624.537zM17.92 11.14h3.454v-.318c-.016-.79-.146-1.387-.39-1.794-.244-.407-.667-.61-1.27-.61-.602 0-1.041.215-1.318.646-.269.432-.427 1.123-.476 2.076zm15.32-2.014l-1.148-.098c-.944 0-1.583.415-1.916 1.245V19h-3.467V5.792h3.26l.097 1.428c.545-1.115 1.298-1.672 2.258-1.672.39 0 .708.053.952.159l-.036 3.418zm6.335 4.992l1.673-8.325h3.6L41.224 19h-3.296L34.29 5.792h3.613l1.672 8.325zM50.098 19H46.63V5.792h3.467V19zM46.472 2.374c0-.537.171-.977.513-1.318.342-.342.797-.513 1.367-.513s1.025.17 1.367.513c.342.341.513.78.513 1.318 0 .529-.171.968-.513 1.318-.333.35-.79.525-1.367.525-.578 0-1.037-.175-1.38-.525-.333-.35-.5-.789-.5-1.318zm11.072 14.001c1 0 1.51-.65 1.526-1.953h3.247c-.016 1.44-.46 2.604-1.33 3.492-.871.887-1.995 1.33-3.37 1.33-1.7 0-2.999-.529-3.894-1.587-.895-1.058-1.35-2.616-1.367-4.675v-1.05c0-2.075.44-3.658 1.318-4.748.887-1.09 2.194-1.636 3.919-1.636 1.456 0 2.604.452 3.442 1.355.838.895 1.266 2.169 1.282 3.82H59.07c-.008-.74-.13-1.31-.366-1.708-.236-.4-.627-.599-1.172-.599-.602 0-1.034.216-1.294.647-.26.424-.399 1.25-.415 2.478v1.343c0 1.075.053 1.827.158 2.259.106.423.281.736.525.94.245.195.59.293 1.038.293zm12.06 2.87c-1.774 0-3.157-.53-4.15-1.588-.993-1.058-1.49-2.571-1.49-4.54v-1.05c0-2.084.457-3.691 1.368-4.822.912-1.132 2.218-1.697 3.919-1.697 1.66 0 2.909.533 3.747 1.599.838 1.058 1.265 2.629 1.282 4.712v1.697h-6.873c.05.976.265 1.692.647 2.148.383.448.973.671 1.77.671 1.156 0 2.12-.394 2.893-1.184l1.355 2.088c-.423.586-1.037 1.062-1.843 1.428a6.388 6.388 0 01-2.624.537zm-2.172-8.106h3.454v-.318c-.016-.79-.146-1.387-.39-1.794-.245-.407-.668-.61-1.27-.61s-1.042.215-1.318.646c-.269.432-.427 1.123-.476 2.076zM82.165 19V1.227h4.7c2.075 0 3.727.659 4.956 1.977 1.237 1.318 1.868 3.125 1.892 5.42v2.88c0 2.337-.618 4.172-1.855 5.506-1.229 1.327-2.926 1.99-5.09 1.99h-4.603zm3.59-14.783v11.805h1.074c1.196 0 2.038-.314 2.527-.94.488-.635.744-1.726.769-3.272V8.722c0-1.66-.232-2.816-.696-3.467-.464-.66-1.254-1.005-2.368-1.038h-1.307zm15.71 15.027c-1.774 0-3.158-.529-4.15-1.587-.993-1.058-1.49-2.571-1.49-4.54v-1.05c0-2.084.456-3.691 1.367-4.822.912-1.132 2.218-1.697 3.919-1.697 1.66 0 2.909.533 3.747 1.599.839 1.058 1.266 2.629 1.282 4.712v1.697h-6.872c.048.976.264 1.692.647 2.148.382.448.972.671 1.77.671 1.155 0 2.12-.394 2.893-1.184l1.355 2.088c-.424.586-1.038 1.062-1.844 1.428a6.383 6.383 0 01-2.624.537zm-2.173-8.105h3.455v-.318c-.017-.79-.147-1.387-.391-1.794-.244-.407-.667-.61-1.27-.61-.602 0-1.041.215-1.318.646-.269.432-.427 1.123-.476 2.076zm12.964 2.978l1.672-8.325h3.601L113.904 19h-3.296L106.97 5.792h3.613l1.673 8.325zM122.778 19h-3.466V5.792h3.466V19zm-3.625-16.626c0-.537.171-.977.513-1.318.341-.342.797-.513 1.367-.513.569 0 1.025.17 1.367.513.342.341.513.78.513 1.318 0 .529-.171.968-.513 1.318-.334.35-.789.525-1.367.525s-1.038-.175-1.38-.525c-.333-.35-.5-.789-.5-1.318zm11.072 14.001c1.001 0 1.509-.65 1.525-1.953h3.248c-.017 1.44-.46 2.604-1.331 3.492-.871.887-1.994 1.33-3.369 1.33-1.701 0-2.999-.529-3.894-1.587-.895-1.058-1.351-2.616-1.367-4.675v-1.05c0-2.075.439-3.658 1.318-4.748.887-1.09 2.193-1.636 3.918-1.636 1.457 0 2.605.452 3.443 1.355.838.895 1.265 2.169 1.282 3.82h-3.248c-.008-.74-.13-1.31-.366-1.708-.236-.4-.626-.599-1.172-.599-.602 0-1.033.216-1.294.647-.26.424-.398 1.25-.415 2.478v1.343c0 1.075.053 1.827.159 2.259.106.423.281.736.525.94.244.195.59.293 1.038.293zm12.06 2.87c-1.774 0-3.157-.53-4.15-1.588-.993-1.058-1.489-2.571-1.489-4.54v-1.05c0-2.084.455-3.691 1.367-4.822.911-1.132 2.217-1.697 3.918-1.697 1.66 0 2.909.533 3.748 1.599.838 1.058 1.265 2.629 1.281 4.712v1.697h-6.872c.049.976.264 1.692.647 2.148.382.448.972.671 1.77.671 1.155 0 2.12-.394 2.893-1.184l1.355 2.088c-.423.586-1.038 1.062-1.843 1.428a6.392 6.392 0 01-2.625.537zm-2.173-8.106h3.455v-.318c-.016-.79-.147-1.387-.391-1.794-.244-.407-.667-.61-1.269-.61-.602 0-1.042.215-1.319.646-.268.432-.427 1.123-.476 2.076z"/></svg>